<?xml version="1.0" encoding="UTF-8"?>
<svg xmlns="http://www.w3.org/2000/svg" xmlns:xlink="http://www.w3.org/1999/xlink" width="40px" height="40px" viewBox="0 0 40 40" version="1.1">
<g id="surface1">
<path style=" stroke:none;fill-rule:nonzero;fill:rgb(4.313725%,9.019608%,9.803922%);fill-opacity:1;" d="M 23.75 13.171875 C 24.710938 13.171875 25.671875 12.804688 26.402344 12.070312 C 27.867188 10.605469 28.171875 5 28.171875 5 C 28.171875 5 22.5625 5.304688 21.097656 6.765625 C 20.285156 7.582031 19.941406 8.675781 20.03125 9.738281 C 20.023438 9.773438 20 9.804688 20 9.84375 C 20 10.539062 19.820312 10.972656 19.539062 11.386719 C 19.410156 11.199219 19.269531 11.019531 19.101562 10.851562 C 17.636719 9.386719 12.03125 9.085938 12.03125 9.085938 C 12.03125 9.085938 12.335938 14.691406 13.796875 16.15625 C 14.53125 16.890625 15.492188 17.253906 16.449219 17.253906 C 16.851562 17.253906 17.25 17.175781 17.632812 17.046875 C 17.730469 17.476562 17.871094 17.847656 18.039062 18.179688 C 15.554688 19.007812 13.75 21.324219 13.75 24.085938 C 13.75 26.121094 14.738281 27.917969 16.25 29.054688 L 16.25 32.5 L 18.75 32.5 L 18.75 30.207031 C 19.5625 30.375 20.410156 30.378906 21.25 30.207031 L 21.25 35 L 23.75 35 L 23.75 29.054688 C 25.261719 27.914062 26.25 26.121094 26.25 24.085938 C 26.25 20.929688 23.902344 18.347656 20.863281 17.921875 C 20.34375 17.296875 20 16.828125 20 15.84375 C 20 14.273438 20.917969 13.941406 21.753906 12.585938 C 22.363281 12.972656 23.054688 13.171875 23.75 13.171875 Z M 22.839844 8.5625 C 23.1875 8.320312 24.148438 8.054688 25.320312 7.84375 C 25.109375 9.015625 24.84375 9.984375 24.605469 10.328125 C 24.121094 10.789062 23.347656 10.785156 22.867188 10.300781 C 22.386719 9.824219 22.378906 9.054688 22.839844 8.5625 Z M 17.335938 14.386719 C 16.855469 14.867188 16.082031 14.871094 15.597656 14.414062 C 15.351562 14.066406 15.085938 13.105469 14.878906 11.929688 C 16.046875 12.140625 17.015625 12.40625 17.363281 12.648438 C 17.820312 13.136719 17.8125 13.910156 17.335938 14.386719 Z M 23.75 24.085938 C 23.75 26.152344 22.066406 27.835938 20 27.835938 C 17.933594 27.835938 16.25 26.152344 16.25 24.085938 C 16.25 22.015625 17.933594 20.335938 20 20.335938 C 22.066406 20.335938 23.75 22.015625 23.75 24.085938 Z M 23.75 24.085938 "/>
</g>
</svg>
