<?xml version="1.0" encoding="UTF-8"?>
<svg xmlns="http://www.w3.org/2000/svg" xmlns:xlink="http://www.w3.org/1999/xlink" width="30px" height="30px" viewBox="0 0 30 30" version="1.1">
<g id="surface1">
<path style=" stroke:none;fill-rule:nonzero;fill:rgb(0%,0%,0%);fill-opacity:1;" d="M 15 0 C 11.765625 0 9.136719 2.628906 9.136719 5.863281 L 9.136719 8.898438 C 9.136719 12.132812 11.765625 14.761719 15 14.761719 C 18.234375 14.761719 20.863281 12.132812 20.863281 8.898438 L 20.863281 5.863281 C 20.863281 2.628906 18.234375 0 15 0 Z M 15 0 "/>
<path style=" stroke:none;fill-rule:nonzero;fill:rgb(0%,0%,0%);fill-opacity:1;" d="M 27.925781 22.402344 C 26.050781 19.203125 23.050781 16.832031 19.480469 15.722656 C 19.394531 15.699219 19.308594 15.71875 19.246094 15.78125 C 17.585938 17.417969 15.519531 18.695312 15.003906 19.003906 C 14.453125 18.652344 12.132812 17.140625 10.753906 15.78125 C 10.691406 15.71875 10.601562 15.699219 10.519531 15.722656 C 6.949219 16.832031 3.949219 19.203125 2.074219 22.402344 C 2.03125 22.476562 2.03125 22.566406 2.074219 22.640625 C 4.738281 27.179688 9.691406 30 15 30 C 20.308594 30 25.261719 27.179688 27.925781 22.640625 C 27.96875 22.566406 27.96875 22.476562 27.925781 22.402344 Z M 22.972656 24.148438 C 22.972656 24.28125 22.847656 24.378906 22.71875 24.378906 L 21.132812 24.378906 C 21.003906 24.378906 20.863281 24.488281 20.863281 24.621094 L 20.863281 26.261719 C 20.863281 26.390625 20.792969 26.488281 20.664062 26.488281 L 19.238281 26.488281 C 19.109375 26.488281 18.984375 26.390625 18.984375 26.261719 L 18.984375 24.621094 C 18.984375 24.488281 18.898438 24.378906 18.769531 24.378906 L 17.113281 24.378906 C 16.984375 24.378906 16.875 24.28125 16.875 24.148438 L 16.875 22.738281 C 16.875 22.605469 16.984375 22.503906 17.113281 22.503906 L 18.769531 22.503906 C 18.898438 22.503906 18.984375 22.398438 18.984375 22.269531 L 18.984375 20.625 C 18.984375 20.496094 19.109375 20.394531 19.238281 20.394531 L 20.648438 20.394531 C 20.777344 20.394531 20.863281 20.496094 20.863281 20.625 L 20.863281 22.273438 C 20.863281 22.402344 20.988281 22.503906 21.117188 22.503906 L 22.71875 22.503906 C 22.847656 22.503906 22.972656 22.613281 22.972656 22.742188 Z M 22.972656 24.148438 "/>
</g>
</svg>
