<?xml version="1.0" encoding="UTF-8"?>
<svg xmlns="http://www.w3.org/2000/svg" xmlns:xlink="http://www.w3.org/1999/xlink" width="20px" height="20px" viewBox="0 0 20 20" version="1.1">
<g id="surface1">
<path style=" stroke:none;fill-rule:nonzero;fill:rgb(0%,0%,0%);fill-opacity:1;" d="M 10 0 C 7.84375 0 6.089844 1.753906 6.089844 3.910156 L 6.089844 5.929688 C 6.089844 8.085938 7.84375 9.839844 10 9.839844 C 12.15625 9.839844 13.910156 8.085938 13.910156 5.929688 L 13.910156 3.910156 C 13.910156 1.753906 12.15625 0 10 0 Z M 10 0 "/>
<path style=" stroke:none;fill-rule:nonzero;fill:rgb(0%,0%,0%);fill-opacity:1;" d="M 18.617188 14.933594 C 17.367188 12.804688 15.367188 11.222656 12.988281 10.480469 C 12.929688 10.464844 12.871094 10.476562 12.832031 10.523438 C 11.726562 11.613281 10.347656 12.460938 10.003906 12.667969 C 9.632812 12.433594 8.085938 11.429688 7.167969 10.523438 C 7.128906 10.476562 7.070312 10.464844 7.011719 10.480469 C 4.632812 11.222656 2.632812 12.804688 1.382812 14.933594 C 1.351562 14.984375 1.351562 15.042969 1.382812 15.09375 C 3.160156 18.117188 6.460938 20 10 20 C 13.539062 20 16.839844 18.117188 18.617188 15.09375 C 18.648438 15.042969 18.648438 14.984375 18.617188 14.933594 Z M 15.316406 16.101562 C 15.316406 16.1875 15.230469 16.253906 15.148438 16.253906 L 14.085938 16.253906 C 14.003906 16.253906 13.910156 16.324219 13.910156 16.414062 L 13.910156 17.507812 C 13.910156 17.59375 13.863281 17.660156 13.773438 17.660156 L 12.824219 17.660156 C 12.742188 17.660156 12.65625 17.59375 12.65625 17.507812 L 12.65625 16.414062 C 12.65625 16.324219 12.601562 16.253906 12.511719 16.253906 L 11.410156 16.253906 C 11.320312 16.253906 11.25 16.1875 11.25 16.101562 L 11.25 15.160156 C 11.25 15.070312 11.320312 15.003906 11.410156 15.003906 L 12.511719 15.003906 C 12.601562 15.003906 12.65625 14.929688 12.65625 14.847656 L 12.65625 13.75 C 12.65625 13.664062 12.742188 13.597656 12.824219 13.597656 L 13.765625 13.597656 C 13.851562 13.597656 13.910156 13.664062 13.910156 13.75 L 13.910156 14.851562 C 13.910156 14.933594 13.992188 15.003906 14.078125 15.003906 L 15.148438 15.003906 C 15.230469 15.003906 15.316406 15.074219 15.316406 15.164062 Z M 15.316406 16.101562 "/>
</g>
</svg>
