<?xml version="1.0" encoding="UTF-8"?>
<svg xmlns="http://www.w3.org/2000/svg" xmlns:xlink="http://www.w3.org/1999/xlink" width="25px" height="25px" viewBox="0 0 25 25" version="1.1">
<g id="surface1">
<path style=" stroke:none;fill-rule:nonzero;fill:rgb(0%,0%,0%);fill-opacity:1;" d="M 12.5 0 C 9.804688 0 7.613281 2.191406 7.613281 4.886719 L 7.613281 7.414062 C 7.613281 10.109375 9.804688 12.300781 12.5 12.300781 C 15.195312 12.300781 17.386719 10.109375 17.386719 7.414062 L 17.386719 4.886719 C 17.386719 2.191406 15.195312 0 12.5 0 Z M 12.5 0 "/>
<path style=" stroke:none;fill-rule:nonzero;fill:rgb(0%,0%,0%);fill-opacity:1;" d="M 23.269531 18.667969 C 21.707031 16.003906 19.207031 14.027344 16.234375 13.101562 C 16.160156 13.082031 16.089844 13.097656 16.039062 13.152344 C 14.65625 14.515625 12.933594 15.578125 12.503906 15.835938 C 12.042969 15.542969 10.109375 14.285156 8.960938 13.152344 C 8.910156 13.097656 8.835938 13.082031 8.765625 13.101562 C 5.792969 14.027344 3.292969 16.003906 1.730469 18.667969 C 1.691406 18.730469 1.691406 18.804688 1.730469 18.867188 C 3.949219 22.648438 8.074219 25 12.5 25 C 16.925781 25 21.050781 22.648438 23.269531 18.867188 C 23.308594 18.804688 23.308594 18.730469 23.269531 18.667969 Z M 19.144531 20.125 C 19.144531 20.234375 19.039062 20.316406 18.933594 20.316406 L 17.609375 20.316406 C 17.503906 20.316406 17.386719 20.40625 17.386719 20.519531 L 17.386719 21.886719 C 17.386719 21.992188 17.328125 22.074219 17.21875 22.074219 L 16.03125 22.074219 C 15.925781 22.074219 15.820312 21.992188 15.820312 21.886719 L 15.820312 20.519531 C 15.820312 20.40625 15.75 20.316406 15.640625 20.316406 L 14.261719 20.316406 C 14.152344 20.316406 14.0625 20.234375 14.0625 20.125 L 14.0625 18.949219 C 14.0625 18.839844 14.152344 18.753906 14.261719 18.753906 L 15.640625 18.753906 C 15.75 18.753906 15.820312 18.664062 15.820312 18.558594 L 15.820312 17.1875 C 15.820312 17.082031 15.925781 16.996094 16.03125 16.996094 L 17.207031 16.996094 C 17.316406 16.996094 17.386719 17.082031 17.386719 17.1875 L 17.386719 18.5625 C 17.386719 18.667969 17.488281 18.753906 17.597656 18.753906 L 18.933594 18.753906 C 19.039062 18.753906 19.144531 18.84375 19.144531 18.953125 Z M 19.144531 20.125 "/>
</g>
</svg>
