<?xml version="1.0" encoding="UTF-8"?>
<svg xmlns="http://www.w3.org/2000/svg" xmlns:xlink="http://www.w3.org/1999/xlink" width="25px" height="25px" viewBox="0 0 25 25" version="1.1">
<g id="surface1">
<path style=" stroke:none;fill-rule:nonzero;fill:rgb(84.705882%,0%,15.294118%);fill-opacity:1;" d="M 25 7.5 L 17.5 7.5 L 17.5 0 L 7.5 0 L 7.5 7.5 L 0 7.5 L 0 17.5 L 7.5 17.5 L 7.5 25 L 17.5 25 L 17.5 17.5 L 25 17.5 Z M 25 7.5 "/>
<path style=" stroke:none;fill-rule:nonzero;fill:rgb(63.529412%,0%,11.372549%);fill-opacity:1;" d="M 17.5 7.5 L 17.5 0 L 12.5 0 L 12.5 25 L 17.5 25 L 17.5 17.5 L 25 17.5 L 25 7.5 Z M 17.5 7.5 "/>
<path style=" stroke:none;fill-rule:nonzero;fill:rgb(100%,100%,100%);fill-opacity:1;" d="M 16.726562 9.828125 C 15.742188 8.90625 14.195312 8.953125 13.269531 9.9375 L 12.5 10.757812 L 11.730469 9.9375 C 10.804688 8.953125 9.257812 8.90625 8.273438 9.828125 C 7.285156 10.753906 7.238281 12.304688 8.164062 13.289062 L 12.5 17.5 L 16.835938 13.289062 C 17.761719 12.304688 17.714844 10.753906 16.726562 9.828125 Z M 16.726562 9.828125 "/>
</g>
</svg>
