<?xml version="1.0" encoding="UTF-8"?>
<svg xmlns="http://www.w3.org/2000/svg" xmlns:xlink="http://www.w3.org/1999/xlink" width="40px" height="40px" viewBox="0 0 40 40" version="1.1">
<g id="surface1">
<path style=" stroke:none;fill-rule:nonzero;fill:rgb(0%,0%,0%);fill-opacity:1;" d="M 23 3 C 23 4.65625 21.65625 6 20 6 C 18.34375 6 17 4.65625 17 3 C 17 1.34375 18.34375 0 20 0 C 21.65625 0 23 1.34375 23 3 Z M 23 3 "/>
<path style=" stroke:none;fill-rule:nonzero;fill:rgb(0%,0%,0%);fill-opacity:1;" d="M 20 9 C 19.480469 9 18.980469 8.933594 18.5 8.808594 L 18.5 40 L 21.5 40 L 21.5 8.808594 C 21.019531 8.933594 20.519531 9 20 9 Z M 20 9 "/>
<path style=" stroke:none;fill-rule:nonzero;fill:rgb(0%,0%,0%);fill-opacity:1;" d="M 11 3 L 3 3 C 3 7.96875 9 15 15 15 L 15.5 15 L 15.5 10.796875 C 12.808594 9.238281 11 6.332031 11 3 Z M 11 3 "/>
<path style=" stroke:none;fill-rule:nonzero;fill:rgb(0%,0%,0%);fill-opacity:1;" d="M 29 3 C 29 6.332031 27.191406 9.238281 24.5 10.796875 L 24.5 15 L 25 15 C 31 15 37 7.96875 37 3 Z M 29 3 "/>
<path style=" stroke:none;fill-rule:nonzero;fill:rgb(0%,0%,0%);fill-opacity:1;" d="M 9 19 C 7.34375 19 6 20.34375 6 22 C 6 23.65625 7.34375 25 9 25 L 15.5 25 L 15.5 19 Z M 9 19 "/>
<path style=" stroke:none;fill-rule:nonzero;fill:rgb(0%,0%,0%);fill-opacity:1;" d="M 31 19 L 24.5 19 L 24.5 25 L 31 25 C 32.65625 25 34 23.65625 34 22 C 34 20.34375 32.65625 19 31 19 Z M 31 19 "/>
<path style=" stroke:none;fill-rule:nonzero;fill:rgb(0%,0%,0%);fill-opacity:1;" d="M 27 28 L 24.5 28 L 24.5 34 L 27 34 C 28.65625 34 30 32.65625 30 31 C 30 29.34375 28.65625 28 27 28 Z M 27 28 "/>
<path style=" stroke:none;fill-rule:nonzero;fill:rgb(0%,0%,0%);fill-opacity:1;" d="M 13 28 C 11.34375 28 10 29.34375 10 31 C 10 32.65625 11.34375 34 13 34 L 15.5 34 L 15.5 28 Z M 13 28 "/>
</g>
</svg>
